<svg xmlns="http://www.w3.org/2000/svg" width="1200" height="1500" viewBox="0 0 1200 1500">
<defs>
  <linearGradient id="bg" x1="0" y1="0" x2="1" y2="1"><stop offset="0" stop-color="#ffffff"/><stop offset=".45" stop-color="#f6e9d8"/><stop offset="1" stop-color="#ffb3c1"/></linearGradient>
  <radialGradient id="r" cx="48%" cy="40%" r="58%"><stop offset="0" stop-color="#ffffff" stop-opacity=".75"/><stop offset=".55" stop-color="#f7dccd" stop-opacity=".38"/><stop offset="1" stop-color="#b10f2e" stop-opacity=".22"/></radialGradient>
  <filter id="shadow" x="-20%" y="-20%" width="140%" height="140%"><feDropShadow dx="0" dy="35" stdDeviation="32" flood-color="#111111" flood-opacity=".18"/></filter>
</defs>
<rect width="1200" height="1500" fill="url(#bg)"/>
<rect width="1200" height="1500" fill="url(#r)"/>
<circle cx="1060" cy="160" r="230" fill="#ffccd5" opacity=".20"/>
<circle cx="100" cy="1320" r="260" fill="#b10f2e" opacity=".10"/>
<g transform="translate(95 94)">
    <g id="floral" fill="none" stroke="#d41434" stroke-width="2.2" stroke-linecap="round" stroke-linejoin="round" opacity=".72">
      <path d="M0 170 C55 130 70 80 88 10"/>
      <path d="M34 132 C4 115 8 83 44 74 C77 67 96 92 79 117 C67 134 51 139 34 132Z" fill="#ffccd5" opacity=".25"/>
      <path d="M64 90 C32 63 42 25 82 20 C119 17 139 49 118 76 C104 94 84 101 64 90Z" fill="#ff7f96" opacity=".18"/>
      <path d="M80 52 C112 39 132 26 152 0"/>
      <path d="M54 116 C87 118 111 130 134 160"/>
      <circle cx="119" cy="50" r="4" fill="#d41434" stroke="none" opacity=".8"/>
      <circle cx="103" cy="118" r="3" fill="#d41434" stroke="none" opacity=".8"/>
    </g>
    <use href="#floral" transform="translate(1010 0) scale(-1 1)"/></g>
<g transform="translate(118 1210) rotate(180)">
    <g id="floral" fill="none" stroke="#d41434" stroke-width="2.2" stroke-linecap="round" stroke-linejoin="round" opacity=".72">
      <path d="M0 170 C55 130 70 80 88 10"/>
      <path d="M34 132 C4 115 8 83 44 74 C77 67 96 92 79 117 C67 134 51 139 34 132Z" fill="#ffccd5" opacity=".25"/>
      <path d="M64 90 C32 63 42 25 82 20 C119 17 139 49 118 76 C104 94 84 101 64 90Z" fill="#ff7f96" opacity=".18"/>
      <path d="M80 52 C112 39 132 26 152 0"/>
      <path d="M54 116 C87 118 111 130 134 160"/>
      <circle cx="119" cy="50" r="4" fill="#d41434" stroke="none" opacity=".8"/>
      <circle cx="103" cy="118" r="3" fill="#d41434" stroke="none" opacity=".8"/>
    </g>
    <use href="#floral" transform="translate(1010 0) scale(-1 1)"/></g>
<rect x="128" y="140" width="944" height="1220" rx="76" fill="#ffffff" opacity=".58" stroke="#fff" stroke-width="2" filter="url(#shadow)"/>
<rect x="170" y="184" width="860" height="1132" rx="52" fill="none" stroke="#d41434" stroke-width="2" opacity=".55"/>
<path d="M338 705 C410 622 498 612 600 704 C704 608 804 622 862 704 C922 790 850 922 600 1064 C350 922 278 790 338 705Z" fill="#b10f2e" opacity=".14"/>
<g fill="#111111" text-anchor="middle">
  <text x="600" y="476" font-family="Georgia, serif" font-size="34" letter-spacing="12">THE WEDDING OF</text>
  <text x="600" y="642" font-family="Georgia, serif" font-size="118">Cô dâu</text>
  <text x="600" y="738" font-family="Georgia, serif" font-size="72" font-style="italic" fill="#d81b3a">and</text>
  <text x="600" y="872" font-family="Georgia, serif" font-size="118">Chú rể</text>
  <text x="600" y="1032" font-family="Arial, sans-serif" font-size="33" letter-spacing="8" fill="#b10f2e">20 • 12 • 2026</text>
</g>
</svg>