<svg xmlns="http://www.w3.org/2000/svg" width="800" height="800" viewBox="0 0 800 800">
    <rect width="800" height="800" rx="64" fill="#fffdf8"/><rect x="58" y="58" width="684" height="684" rx="46" fill="none" stroke="#ead1a2" stroke-width="12"/>
    <g fill="#3f2230"><rect x="160" y="160" width="42" height="42" rx="8"/><rect x="230" y="160" width="42" height="42" rx="8"/><rect x="300" y="160" width="42" height="42" rx="8"/><rect x="370" y="160" width="42" height="42" rx="8"/><rect x="440" y="160" width="42" height="42" rx="8"/><rect x="510" y="160" width="42" height="42" rx="8"/><rect x="580" y="160" width="42" height="42" rx="8"/><rect x="160" y="230" width="42" height="42" rx="8"/><rect x="230" y="230" width="42" height="42" rx="8"/><rect x="300" y="230" width="42" height="42" rx="8"/><rect x="440" y="230" width="42" height="42" rx="8"/><rect x="510" y="230" width="42" height="42" rx="8"/><rect x="580" y="230" width="42" height="42" rx="8"/><rect x="160" y="300" width="42" height="42" rx="8"/><rect x="230" y="300" width="42" height="42" rx="8"/><rect x="300" y="300" width="42" height="42" rx="8"/><rect x="370" y="300" width="42" height="42" rx="8"/><rect x="440" y="300" width="42" height="42" rx="8"/><rect x="510" y="300" width="42" height="42" rx="8"/><rect x="580" y="300" width="42" height="42" rx="8"/><rect x="160" y="370" width="42" height="42" rx="8"/><rect x="300" y="370" width="42" height="42" rx="8"/><rect x="370" y="370" width="42" height="42" rx="8"/><rect x="510" y="370" width="42" height="42" rx="8"/><rect x="580" y="370" width="42" height="42" rx="8"/><rect x="160" y="440" width="42" height="42" rx="8"/><rect x="230" y="440" width="42" height="42" rx="8"/><rect x="300" y="440" width="42" height="42" rx="8"/><rect x="440" y="440" width="42" height="42" rx="8"/><rect x="510" y="440" width="42" height="42" rx="8"/><rect x="580" y="440" width="42" height="42" rx="8"/><rect x="160" y="510" width="42" height="42" rx="8"/><rect x="230" y="510" width="42" height="42" rx="8"/><rect x="300" y="510" width="42" height="42" rx="8"/><rect x="370" y="510" width="42" height="42" rx="8"/><rect x="440" y="510" width="42" height="42" rx="8"/><rect x="510" y="510" width="42" height="42" rx="8"/><rect x="580" y="510" width="42" height="42" rx="8"/><rect x="160" y="580" width="42" height="42" rx="8"/><rect x="230" y="580" width="42" height="42" rx="8"/><rect x="300" y="580" width="42" height="42" rx="8"/><rect x="370" y="580" width="42" height="42" rx="8"/><rect x="440" y="580" width="42" height="42" rx="8"/><rect x="510" y="580" width="42" height="42" rx="8"/><rect x="580" y="580" width="42" height="42" rx="8"/></g>
    <text x="400" y="690" text-anchor="middle" font-family="Arial, sans-serif" font-size="34" letter-spacing="6" fill="#6d2f3f">Cô dâu</text>
    </svg>